<?xml version="1.0" standalone="no"?>
<!DOCTYPE svg PUBLIC "-//W3C//DTD SVG 20010904//EN"
 "http://www.w3.org/TR/2001/REC-SVG-20010904/DTD/svg10.dtd">
<svg version="1.0" xmlns="http://www.w3.org/2000/svg"
 width="260.000000pt" height="260.000000pt" viewBox="0 0 260.000000 260.000000"
 preserveAspectRatio="xMidYMid meet">
<metadata>
Created by potrace 1.14, written by Peter Selinger 2001-2017
</metadata>
<g transform="translate(0.000000,260.000000) scale(0.100000,-0.100000)"
fill="#000000" stroke="none">
<path d="M1110 2584 c-286 -43 -545 -177 -743 -383 -250 -262 -373 -577 -362
-936 10 -348 132 -631 380 -881 185 -186 399 -302 665 -360 87 -19 329 -27
410 -13 30 5 69 11 85 14 307 50 634 264 823 538 88 127 174 319 197 442 52
264 39 496 -39 723 -109 318 -364 602 -671 746 -71 34 -206 82 -255 91 -196
36 -344 42 -490 19z m273 -596 c10 -5 17 -5 17 1 0 10 11 8 50 -7 23 -8 28 -9
51 -11 12 -1 17 -5 13 -13 -4 -6 -3 -8 4 -4 25 15 228 -96 215 -117 -3 -6 -2
-7 4 -4 11 7 73 -49 114 -104 43 -58 99 -159 101 -185 1 -13 6 -24 10 -24 4 0
8 -9 8 -21 0 -11 5 -29 10 -40 8 -14 7 -19 -2 -19 -9 0 -9 -3 2 -10 11 -7 14
-34 15 -122 0 -62 -4 -122 -9 -133 -5 -11 -8 -28 -7 -37 1 -10 -4 -28 -10 -40
-7 -13 -14 -31 -16 -41 -4 -25 -43 -101 -57 -109 -6 -4 -8 -8 -3 -8 9 0 -19
-47 -42 -71 -9 -9 -30 -31 -47 -50 -47 -52 -84 -80 -95 -74 -5 4 -8 1 -7 -5 2
-7 -17 -23 -42 -37 -25 -13 -55 -31 -67 -39 -13 -8 -23 -12 -23 -8 0 4 -7 1
-15 -6 -8 -6 -18 -9 -24 -6 -5 3 -11 2 -13 -3 -3 -10 -24 -16 -108 -31 -66
-12 -216 -4 -285 14 -75 21 -196 77 -224 105 -12 12 -24 22 -28 23 -17 3 -62
42 -57 49 2 4 -4 10 -13 13 -52 17 -176 246 -186 345 -2 15 -6 31 -9 36 -11
19 -1 211 15 275 24 98 79 207 135 265 6 8 12 16 12 19 0 6 60 66 67 66 3 0
14 9 24 21 10 11 42 35 73 54 41 24 57 30 67 21 9 -8 10 -8 6 0 -4 7 0 17 8
24 8 7 15 10 15 7 0 -3 17 1 37 9 46 20 69 26 111 29 18 2 36 6 40 10 9 9 143
3 165 -7z"/>
<path d="M1180 1926 c0 -2 8 -10 18 -17 15 -13 16 -12 3 4 -13 16 -21 21 -21
13z"/>
<path d="M1515 1811 c-3 -5 -2 -12 3 -15 5 -3 9 1 9 9 0 17 -3 19 -12 6z"/>
<path d="M1439 1753 c-13 -16 -12 -17 4 -4 9 7 17 15 17 17 0 8 -8 3 -21 -13z"/>
<path d="M1035 1720 c3 -5 8 -10 11 -10 2 0 4 5 4 10 0 6 -5 10 -11 10 -5 0
-7 -4 -4 -10z"/>
<path d="M1195 1720 c-3 -5 -1 -10 4 -10 6 0 11 5 11 10 0 6 -2 10 -4 10 -3 0
-8 -4 -11 -10z"/>
<path d="M947 1679 c7 -7 15 -10 18 -7 3 3 -2 9 -12 12 -14 6 -15 5 -6 -5z"/>
<path d="M1470 1576 c0 -2 8 -10 18 -17 15 -13 16 -12 3 4 -13 16 -21 21 -21
13z"/>
<path d="M1709 1563 c-13 -16 -12 -17 4 -4 9 7 17 15 17 17 0 8 -8 3 -21 -13z"/>
<path d="M1426 1478 c3 -5 10 -6 15 -3 13 9 11 12 -6 12 -8 0 -12 -4 -9 -9z"/>
<path d="M1586 1482 c-3 -5 1 -9 9 -9 8 0 15 4 15 9 0 4 -4 8 -9 8 -6 0 -12
-4 -15 -8z"/>
<path d="M1756 1478 c3 -5 10 -6 15 -3 13 9 11 12 -6 12 -8 0 -12 -4 -9 -9z"/>
<path d="M1470 1416 c0 -2 8 -10 18 -17 15 -13 16 -12 3 4 -13 16 -21 21 -21
13z"/>
<path d="M1359 1273 c-13 -16 -12 -17 4 -4 16 13 21 21 13 21 -2 0 -10 -8 -17
-17z"/>
<path d="M795 1160 c-3 -5 -1 -10 4 -10 6 0 11 5 11 10 0 6 -2 10 -4 10 -3 0
-8 -4 -11 -10z"/>
<path d="M679 1073 c-13 -16 -12 -17 4 -4 16 13 21 21 13 21 -2 0 -10 -8 -17
-17z"/>
<path d="M900 1086 c0 -2 8 -10 18 -17 15 -13 16 -12 3 4 -13 16 -21 21 -21
13z"/>
<path d="M946 882 c-2 -4 4 -8 14 -8 10 0 16 4 14 8 -3 4 -9 8 -14 8 -5 0 -11
-4 -14 -8z"/>
<path d="M1549 683 c-13 -16 -12 -17 4 -4 16 13 21 21 13 21 -2 0 -10 -8 -17
-17z"/>
</g>
</svg>
