<svg width="16" height="27" viewBox="0 0 16 27" fill="none" xmlns="http://www.w3.org/2000/svg">
<path d="M1.584 26.108C1.344 26.108 1.164 26.072 1.044 26C0.924 25.952 0.864 25.856 0.864 25.712C0.864 25.52 0.936 25.388 1.08 25.316C1.248 25.244 1.452 25.184 1.692 25.136C2.244 25.016 2.64 24.848 2.88 24.632C3.12 24.392 3.24 24.032 3.24 23.552V13.4C3 13.4 2.724 13.4 2.412 13.4C2.1 13.376 1.752 13.352 1.368 13.328C1.296 13.304 1.188 13.22 1.044 13.076C0.924 12.932 0.864 12.8 0.864 12.68C0.864 12.632 0.9 12.596 0.972 12.572C1.044 12.524 1.092 12.488 1.116 12.464C1.548 12.248 1.92 12.056 2.232 11.888C2.544 11.72 2.88 11.552 3.24 11.384C3.24 9.296 3.492 7.556 3.996 6.164C4.524 4.772 5.196 3.668 6.012 2.852C6.828 2.036 7.692 1.46 8.604 1.124C9.516 0.763999 10.368 0.583999 11.16 0.583999C12.504 0.583999 13.5 0.787999 14.148 1.196C14.796 1.604 15.12 2.12 15.12 2.744C15.12 3.224 15 3.584 14.76 3.824C14.52 4.064 14.232 4.184 13.896 4.184C13.68 4.184 13.476 4.1 13.284 3.932C13.116 3.764 12.912 3.572 12.672 3.356C12.36 3.044 11.976 2.756 11.52 2.492C11.064 2.204 10.44 2.06 9.648 2.06C8.52 2.06 7.584 2.552 6.84 3.536C6.12 4.52 5.76 6.032 5.76 8.072V11.24C5.76 11.384 5.796 11.48 5.868 11.528C5.964 11.576 6.06 11.6 6.156 11.6H10.656C10.776 11.6 10.884 11.636 10.98 11.708C11.076 11.78 11.124 11.876 11.124 11.996C11.124 12.164 11.1 12.344 11.052 12.536C11.028 12.728 10.98 12.896 10.908 13.04C10.836 13.232 10.728 13.328 10.584 13.328H6.444C6.156 13.328 5.964 13.376 5.868 13.472C5.796 13.544 5.76 13.652 5.76 13.796V23.552C5.76 24.032 5.916 24.392 6.228 24.632C6.54 24.848 7.176 25.016 8.136 25.136C8.688 25.208 8.964 25.4 8.964 25.712C8.964 25.856 8.904 25.952 8.784 26C8.664 26.072 8.484 26.108 8.244 26.108C7.524 26.108 6.888 26.072 6.336 26C5.784 25.952 5.196 25.928 4.572 25.928C4.164 25.928 3.828 25.94 3.564 25.964C3.3 25.988 3.024 26.012 2.736 26.036C2.448 26.084 2.064 26.108 1.584 26.108Z" fill="white"/>
</svg>
