<svg width="54" height="48" viewBox="0 0 54 48" fill="none" xmlns="http://www.w3.org/2000/svg">
<circle cx="24" cy="24" r="24" fill="#0099FF"/>
<g style="mix-blend-mode:multiply">
<circle cx="30" cy="24" r="24" fill="#FF5C00"/>
</g>
<path d="M21.584 36.108C21.344 36.108 21.164 36.072 21.044 36C20.924 35.952 20.864 35.856 20.864 35.712C20.864 35.52 20.936 35.388 21.08 35.316C21.248 35.244 21.452 35.184 21.692 35.136C22.244 35.016 22.64 34.848 22.88 34.632C23.12 34.392 23.24 34.032 23.24 33.552V23.4C23 23.4 22.724 23.4 22.412 23.4C22.1 23.376 21.752 23.352 21.368 23.328C21.296 23.304 21.188 23.22 21.044 23.076C20.924 22.932 20.864 22.8 20.864 22.68C20.864 22.632 20.9 22.596 20.972 22.572C21.044 22.524 21.092 22.488 21.116 22.464C21.548 22.248 21.92 22.056 22.232 21.888C22.544 21.72 22.88 21.552 23.24 21.384C23.24 19.296 23.492 17.556 23.996 16.164C24.524 14.772 25.196 13.668 26.012 12.852C26.828 12.036 27.692 11.46 28.604 11.124C29.516 10.764 30.368 10.584 31.16 10.584C32.504 10.584 33.5 10.788 34.148 11.196C34.796 11.604 35.12 12.12 35.12 12.744C35.12 13.224 35 13.584 34.76 13.824C34.52 14.064 34.232 14.184 33.896 14.184C33.68 14.184 33.476 14.1 33.284 13.932C33.116 13.764 32.912 13.572 32.672 13.356C32.36 13.044 31.976 12.756 31.52 12.492C31.064 12.204 30.44 12.06 29.648 12.06C28.52 12.06 27.584 12.552 26.84 13.536C26.12 14.52 25.76 16.032 25.76 18.072V21.24C25.76 21.384 25.796 21.48 25.868 21.528C25.964 21.576 26.06 21.6 26.156 21.6H30.656C30.776 21.6 30.884 21.636 30.98 21.708C31.076 21.78 31.124 21.876 31.124 21.996C31.124 22.164 31.1 22.344 31.052 22.536C31.028 22.728 30.98 22.896 30.908 23.04C30.836 23.232 30.728 23.328 30.584 23.328H26.444C26.156 23.328 25.964 23.376 25.868 23.472C25.796 23.544 25.76 23.652 25.76 23.796V33.552C25.76 34.032 25.916 34.392 26.228 34.632C26.54 34.848 27.176 35.016 28.136 35.136C28.688 35.208 28.964 35.4 28.964 35.712C28.964 35.856 28.904 35.952 28.784 36C28.664 36.072 28.484 36.108 28.244 36.108C27.524 36.108 26.888 36.072 26.336 36C25.784 35.952 25.196 35.928 24.572 35.928C24.164 35.928 23.828 35.94 23.564 35.964C23.3 35.988 23.024 36.012 22.736 36.036C22.448 36.084 22.064 36.108 21.584 36.108Z" fill="white"/>
</svg>
