<svg xmlns="http://www.w3.org/2000/svg" width="65" height="61" viewBox="0 0 65 61">
  <path d="M12 0C18.627417 0 24 5.372583 24 12 24 18.627417 18.627417 24 12 24 5.372583 24 0 18.627417 0 12 0 5.372583 5.372583 0 12 0zM12 3C7.02943725 3 3 7.02943725 3 12 3 16.9705627 7.02943725 21 12 21 16.9705627 21 21 16.9705627 21 12 21 7.02943725 16.9705627 3 12 3zM53 0C59.627417 0 65 5.372583 65 12 65 18.627417 59.627417 24 53 24 46.372583 24 41 18.627417 41 12 41 5.372583 46.372583 0 53 0zM53 3C48.0294373 3 44 7.02943725 44 12 44 16.9705627 48.0294373 21 53 21 57.9705627 21 62 16.9705627 62 12 62 7.02943725 57.9705627 3 53 3zM19.211601 50C23.3541951 54.5198139 29.1821022 57.1397462 35.4343938 57.1397462 41.3202596 57.1397462 46.8332469 54.8190527 50.9226552 50.763931L51.2343995 50.4485875 53.3887246 52.5363814C48.7106362 57.3635455 42.2915848 60.1397462 35.4343938 60.1397462 28.4866195 60.1397462 21.9934045 57.2886244 17.3095608 52.358752L17 52.0270227 19.211601 50z"/>
  <polygon points="33 0 33 38.25 42.923 34.115 44.077 36.885 30 42.75 30 0"/>
</svg>
